<svg width="105" height="35" viewBox="0 0 105 35" fill="none" xmlns="http://www.w3.org/2000/svg">
<g clip-path="url(#clip0)">
<path d="M103.862 26.775C103.862 27.125 103.862 27.3875 103.862 27.7375C103.862 28 103.862 28.2625 103.862 28.525C103.862 29.05 103.775 29.575 103.687 30.1875C103.6 30.7125 103.425 31.2375 103.25 31.675C102.987 32.1125 102.725 32.55 102.375 32.9C102.025 33.25 101.587 33.6 101.15 33.775C100.712 34.0375 100.275 34.125 99.6622 34.2125C99.1372 34.3 98.5247 34.3 97.9997 34.3875C97.7372 34.3875 97.4747 34.3875 97.2122 34.3875H96.2497H7.26221C6.99971 34.3875 6.73721 34.3875 6.47471 34.3875C5.94971 34.3875 5.42471 34.3875 4.81221 34.2125C4.37471 34.125 3.84971 33.95 3.41221 33.775C2.97471 33.5125 2.53721 33.25 2.18721 32.9C1.83721 32.55 1.48721 32.1125 1.31221 31.675C1.04971 31.2375 0.962207 30.8 0.874707 30.1875C0.787207 29.575 0.699707 28.9625 0.699707 28.525C0.699707 28.35 0.699707 27.7375 0.699707 27.7375V7.525C0.699707 7.525 0.699707 6.9125 0.699707 6.7375C0.699707 6.3 0.699707 5.6875 0.874707 5.075C0.962207 4.55 1.13721 4.025 1.31221 3.5875C1.57471 3.15 1.83721 2.7125 2.18721 2.3625C2.53721 2.0125 2.97471 1.6625 3.41221 1.4875C3.84971 1.225 4.37471 1.1375 4.89971 1.05C5.51221 0.9625 6.12471 0.875 6.56221 0.875H7.34971H97.2997H98.0872C98.5247 0.875 99.1372 0.875 99.7497 1.05C100.275 1.1375 100.712 1.3125 101.237 1.4875C101.675 1.75 102.112 2.0125 102.462 2.3625C102.812 2.7125 103.162 3.15 103.337 3.5875C103.6 4.025 103.687 4.55 103.775 4.9875C103.862 5.5125 103.95 6.125 103.95 6.65C103.95 6.9125 103.95 7.175 103.95 7.4375C103.95 7.7875 103.95 8.05 103.95 8.4V26.775H103.862Z" fill="#1D1D1D"/>
<path d="M104.65 7.52493C104.65 7.26243 104.65 6.99993 104.65 6.73743C104.65 6.12493 104.563 5.59993 104.475 4.98743C104.388 4.37493 104.213 3.84993 103.95 3.32493C103.688 2.79993 103.338 2.36243 102.9 1.92493C102.463 1.48743 102.025 1.13743 101.5 0.874927C100.975 0.612427 100.45 0.437427 99.8376 0.349927C99.2251 0.262427 98.7001 0.174927 98.0876 0.174927C97.8251 0.174927 97.5626 0.174927 97.3001 0.174927C96.9501 0.174927 96.6876 0.174927 96.3376 0.174927H8.2251C7.8751 0.174927 7.6126 0.174927 7.2626 0.174927C7.0001 0.174927 6.7376 0.174927 6.4751 0.174927C5.8626 0.174927 5.3376 0.262427 4.7251 0.349927C4.2001 0.437427 3.5876 0.612427 3.0626 0.874927C2.5376 1.13743 2.1001 1.48743 1.6626 1.92493C1.2251 2.27493 0.875097 2.79993 0.612597 3.32493C0.350097 3.84993 0.175097 4.37493 0.0875975 4.98743C9.74908e-05 5.59993 -0.0874023 6.12493 -0.0874023 6.73743C-0.0874023 6.99993 -0.0874023 7.26243 -0.0874023 7.52493C-0.0874023 7.87493 -0.0874023 8.13743 -0.0874023 8.48743V26.7749C-0.0874023 27.1249 -0.0874023 27.3874 -0.0874023 27.7374C-0.0874023 27.9999 -0.0874023 28.2624 -0.0874023 28.5249C-0.0874023 29.1374 9.74908e-05 29.6624 0.0875975 30.2749C0.175097 30.8874 0.350097 31.4124 0.612597 31.9374C0.875097 32.4624 1.2251 32.8999 1.6626 33.3374C2.1001 33.7749 2.5376 34.1249 3.0626 34.3874C3.5876 34.6499 4.1126 34.8249 4.7251 34.9124C5.3376 34.9999 5.8626 35.0874 6.4751 35.0874C6.7376 35.0874 7.0001 35.0874 7.2626 35.0874C7.6126 35.0874 7.8751 35.0874 8.2251 35.0874H96.2501C96.6001 35.0874 96.8626 35.0874 97.2126 35.0874C97.4751 35.0874 97.7376 35.0874 98.0001 35.0874C98.6126 35.0874 99.1376 34.9999 99.7501 34.9124C100.363 34.8249 100.888 34.6499 101.413 34.3874C101.938 34.1249 102.375 33.7749 102.813 33.3374C103.25 32.8999 103.6 32.4624 103.863 31.9374C104.125 31.4124 104.3 30.8874 104.388 30.2749C104.475 29.6624 104.563 29.1374 104.563 28.5249C104.563 28.2624 104.563 27.9999 104.563 27.7374C104.563 27.3874 104.563 27.1249 104.563 26.7749L104.65 9.56565C104.65 9.62497 104.65 7.87493 104.65 7.52493ZM103.863 26.7749C103.863 27.1249 103.863 27.3874 103.863 27.7374C103.863 27.9999 103.863 28.2624 103.863 28.5249C103.863 29.0499 103.775 29.5749 103.688 30.1874C103.6 30.7124 103.425 31.2374 103.25 31.6749C102.988 32.1124 102.725 32.5499 102.375 32.8999C102.025 33.2499 101.588 33.5999 101.15 33.7749C100.713 34.0374 100.275 34.1249 99.6626 34.2124C99.1376 34.2999 98.5251 34.2999 98.0001 34.3874C97.7376 34.3874 97.4751 34.3874 97.2126 34.3874H96.2501H7.2626C7.0001 34.3874 6.7376 34.3874 6.4751 34.3874C5.9501 34.3874 5.4251 34.3874 4.8126 34.2124C4.3751 34.1249 3.8501 33.9499 3.4126 33.7749C2.9751 33.5124 2.5376 33.2499 2.1876 32.8999C1.8376 32.5499 1.4876 32.1124 1.3126 31.6749C1.0501 31.2374 0.962598 30.7999 0.875098 30.1874C0.787598 29.5749 0.700098 28.9624 0.700098 28.5249C0.700098 28.3499 0.700098 27.7374 0.700098 27.7374V7.52493C0.700098 7.52493 0.700098 6.91243 0.700098 6.73743C0.700098 6.29993 0.700098 5.68743 0.875098 5.07493C0.962598 4.54993 1.1376 4.02493 1.3126 3.58743C1.5751 3.14993 1.8376 2.71243 2.1876 2.36243C2.5376 2.01243 2.9751 1.66243 3.4126 1.48743C3.8501 1.22493 4.3751 1.13743 4.9001 1.04993C5.5126 0.962427 6.1251 0.874927 6.5626 0.874927H7.3501H97.3001H98.0876C98.5251 0.874927 99.1376 0.874927 99.7501 1.04993C100.275 1.13743 100.713 1.31243 101.238 1.48743C101.675 1.74993 102.113 2.01243 102.463 2.36243C102.813 2.71243 103.163 3.14993 103.338 3.58743C103.6 4.02493 103.688 4.54993 103.775 4.98743C103.863 5.51243 103.95 6.12493 103.95 6.64993C103.95 6.91243 103.95 7.17493 103.95 7.43743C103.95 7.78743 103.95 8.04993 103.95 8.39993V26.7749H103.863Z" fill="white"/>
<path d="M21.6125 17.9374C21.6125 15.4874 23.625 14.3499 23.7125 14.2624C22.575 12.5999 20.825 12.4249 20.2125 12.3374C18.725 12.1624 17.325 13.2124 16.5375 13.2124C15.75 13.2124 14.6125 12.3374 13.3875 12.3374C11.8125 12.3374 10.325 13.2999 9.44995 14.6999C7.78745 17.5874 9.01246 21.9624 10.675 24.3249C11.4625 25.4624 12.425 26.7749 13.65 26.7749C14.875 26.6874 15.3125 25.9874 16.8 25.9874C18.2875 25.9874 18.6375 26.7749 19.95 26.7749C21.2625 26.7749 22.05 25.6374 22.8375 24.4124C23.8 23.0999 24.15 21.7874 24.15 21.6999C24.15 21.7874 21.6125 20.8249 21.6125 17.9374Z" fill="white"/>
<path d="M19.1622 10.85C19.7747 10.0625 20.2997 8.92498 20.1247 7.78748C19.1622 7.78748 18.0247 8.39998 17.3247 9.27498C16.7122 9.97498 16.1872 11.1125 16.3622 12.25C17.4122 12.25 18.5497 11.6375 19.1622 10.85Z" fill="white"/>
<path d="M36.9251 23.8876H32.8126L31.8501 26.8626H30.1001L34.0376 16.0126H35.8751L39.8126 26.8626H38.0626L36.9251 23.8876ZM33.2501 22.5751H36.5751L35.0001 17.8501H34.9126L33.2501 22.5751Z" fill="white"/>
<path d="M48.2124 22.8375C48.2124 25.2875 46.8999 26.8625 44.8874 26.8625C43.7499 26.8625 42.8749 26.3375 42.4374 25.4625V29.4H40.7749V18.9H42.3499V20.2125C42.7874 19.3375 43.7499 18.8125 44.8874 18.8125C46.8999 18.8125 48.2124 20.3875 48.2124 22.8375ZM46.5499 22.8375C46.5499 21.2625 45.7624 20.2125 44.4499 20.2125C43.2249 20.2125 42.3499 21.2625 42.3499 22.8375C42.3499 24.4125 43.2249 25.4625 44.4499 25.4625C45.6749 25.55 46.5499 24.5 46.5499 22.8375Z" fill="white"/>
<path d="M56.875 22.8375C56.875 25.2875 55.5625 26.8625 53.55 26.8625C52.4125 26.8625 51.5375 26.3375 51.1 25.4625V29.4H49.4375V18.9H51.0125V20.2125C51.45 19.3375 52.4125 18.8125 53.55 18.8125C55.5625 18.8125 56.875 20.3875 56.875 22.8375ZM55.2125 22.8375C55.2125 21.2625 54.425 20.2125 53.1125 20.2125C51.8875 20.2125 51.0125 21.2625 51.0125 22.8375C51.0125 24.4125 51.8875 25.4625 53.1125 25.4625C54.425 25.55 55.2125 24.5 55.2125 22.8375Z" fill="white"/>
<path d="M62.6502 23.8C62.7377 24.85 63.7877 25.55 65.2752 25.55C66.6752 25.55 67.6377 24.85 67.6377 23.8875C67.6377 23.0125 67.0252 22.575 65.6252 22.225L64.2252 21.875C62.2127 21.35 61.3377 20.475 61.3377 18.9875C61.3377 17.15 63.0002 15.8375 65.2752 15.8375C67.5502 15.8375 69.1252 17.15 69.2127 18.9875H67.5502C67.4627 17.9375 66.5877 17.2375 65.2752 17.2375C63.9627 17.2375 63.0002 17.85 63.0002 18.8125C63.0002 19.6 63.6127 20.0375 65.0127 20.3875L66.2377 20.65C68.4252 21.175 69.3877 22.05 69.3877 23.625C69.3877 25.6375 67.7252 26.95 65.1877 26.95C62.7377 26.95 61.1627 25.725 61.0752 23.7125H62.6502V23.8Z" fill="white"/>
<path d="M72.8878 17.0625V18.9H74.3753V20.2125H72.8878V24.5875C72.8878 25.2875 73.1503 25.55 73.8503 25.55C74.0253 25.55 74.2878 25.55 74.3753 25.55V26.8625C74.2003 26.95 73.8503 26.95 73.5003 26.95C71.9253 26.95 71.3128 26.3375 71.3128 24.85V20.3H70.1753V18.9875H71.3128V17.15H72.8878V17.0625Z" fill="white"/>
<path d="M75.25 22.8375C75.25 20.3875 76.7375 18.8125 79.0125 18.8125C81.2875 18.8125 82.775 20.3875 82.775 22.8375C82.775 25.375 81.2875 26.8625 79.0125 26.8625C76.65 26.95 75.25 25.375 75.25 22.8375ZM81.1125 22.8375C81.1125 21.0875 80.325 20.125 79.0125 20.125C77.7 20.125 76.9125 21.175 76.9125 22.8375C76.9125 24.5875 77.7 25.55 79.0125 25.55C80.325 25.55 81.1125 24.5875 81.1125 22.8375Z" fill="white"/>
<path d="M84.0874 18.9H85.6624V20.2125C85.9249 19.3375 86.6249 18.8125 87.5874 18.8125C87.8499 18.8125 88.0249 18.8125 88.1124 18.9V20.3875C88.0249 20.3 87.6749 20.3 87.4124 20.3C86.3624 20.3 85.7499 21 85.7499 22.1375V26.8625H84.0874V18.9Z" fill="white"/>
<path d="M95.6374 24.5C95.4624 25.9 93.9749 26.95 92.2249 26.95C89.9499 26.95 88.4624 25.375 88.4624 22.925C88.4624 20.475 89.8624 18.8125 92.1374 18.8125C94.3249 18.8125 95.7249 20.3 95.7249 22.75V23.275H90.1249V23.3625C90.1249 24.675 90.9999 25.6375 92.2249 25.6375C93.0999 25.6375 93.7999 25.2 94.0624 24.5H95.6374ZM90.1249 22.1375H94.0624C94.0624 20.9125 93.2749 20.125 92.1374 20.125C90.9999 20.125 90.2124 20.9125 90.1249 22.1375Z" fill="white"/>
<path d="M33.1628 7.43738C34.7378 7.43738 35.6128 8.39988 35.6128 10.0624C35.6128 11.7249 34.7378 12.6874 33.1628 12.6874H31.2378V7.43738H33.1628ZM32.0253 11.8999H32.9878C34.0378 11.8999 34.7378 11.1999 34.7378 10.0624C34.7378 8.92488 34.1253 8.22488 32.9878 8.22488H32.0253V11.8999Z" fill="white"/>
<path d="M36.4878 10.675C36.4878 9.36248 37.1878 8.66248 38.3253 8.66248C39.4628 8.66248 40.1628 9.44998 40.1628 10.675C40.1628 11.9875 39.4628 12.6875 38.3253 12.6875C37.1878 12.775 36.4878 11.9875 36.4878 10.675ZM39.3753 10.675C39.3753 9.79998 39.0253 9.36248 38.3253 9.36248C37.6253 9.36248 37.2753 9.88748 37.2753 10.675C37.2753 11.55 37.6253 12.075 38.3253 12.075C39.0253 12.075 39.3753 11.55 39.3753 10.675Z" fill="white"/>
<path d="M45.1504 12.6874H44.3629L43.5754 9.79988H43.4879L42.7004 12.6874H41.9129L40.7754 8.74988H41.5629L42.2629 11.7249H42.3504L43.1379 8.74988H43.9254L44.7129 11.7249H44.8004L45.5004 8.74988H46.2879L45.1504 12.6874Z" fill="white"/>
<path d="M47.1626 8.74998H47.9501V9.36248H48.0376C48.2126 8.92498 48.6501 8.66248 49.1751 8.66248C50.0501 8.66248 50.5751 9.18748 50.5751 10.15V12.6875H49.7876V10.325C49.7876 9.71248 49.5251 9.36248 48.9126 9.36248C48.3001 9.36248 47.9501 9.71248 47.9501 10.325V12.6H47.1626V8.74998Z" fill="white"/>
<path d="M51.7129 7.17493H52.5004V12.6874H51.7129V7.17493Z" fill="white"/>
<path d="M53.5503 10.675C53.5503 9.36248 54.2503 8.66248 55.3878 8.66248C56.5253 8.66248 57.2253 9.44998 57.2253 10.675C57.2253 11.9875 56.5253 12.6875 55.3878 12.6875C54.3378 12.775 53.5503 11.9875 53.5503 10.675ZM56.5253 10.675C56.5253 9.79998 56.1753 9.36248 55.4753 9.36248C54.7753 9.36248 54.4253 9.88748 54.4253 10.675C54.4253 11.55 54.7753 12.075 55.4753 12.075C56.0878 12.075 56.5253 11.55 56.5253 10.675Z" fill="white"/>
<path d="M58.1001 11.55C58.1001 10.85 58.6251 10.4125 59.5876 10.4125L60.6376 10.325V9.97498C60.6376 9.53748 60.3751 9.36248 59.8501 9.36248C59.4126 9.36248 59.1501 9.53748 59.0626 9.79998H58.2751C58.3626 9.09998 58.9751 8.66248 59.8501 8.66248C60.8126 8.66248 61.4251 9.18748 61.4251 9.97498V12.6875H60.6376V12.1625H60.5501C60.2876 12.6 59.8501 12.775 59.3251 12.775C58.7126 12.775 58.1001 12.25 58.1001 11.55ZM60.6376 11.2V10.85L59.6751 10.9375C59.1501 10.9375 58.8876 11.2 58.8876 11.4625C58.8876 11.8125 59.2376 11.9875 59.5876 11.9875C60.2001 12.075 60.6376 11.725 60.6376 11.2Z" fill="white"/>
<path d="M62.4751 10.6749C62.4751 9.44993 63.0876 8.66243 64.1376 8.66243C64.6626 8.66243 65.1001 8.92493 65.3626 9.36243H65.4501V7.17493H66.2376V12.6874H65.4501V12.0749H65.3626C65.1001 12.5124 64.6626 12.7749 64.1376 12.7749C63.0876 12.7749 62.4751 11.9874 62.4751 10.6749ZM63.2626 10.6749C63.2626 11.5499 63.7001 11.9874 64.3126 11.9874C64.9251 11.9874 65.3626 11.4624 65.3626 10.6749C65.3626 9.88743 64.9251 9.36243 64.3126 9.36243C63.7001 9.36243 63.2626 9.88743 63.2626 10.6749Z" fill="white"/>
<path d="M69.3877 10.675C69.3877 9.36248 70.0877 8.66248 71.2252 8.66248C72.3627 8.66248 73.0627 9.44998 73.0627 10.675C73.0627 11.9875 72.3627 12.6875 71.2252 12.6875C70.0877 12.775 69.3877 11.9875 69.3877 10.675ZM72.2752 10.675C72.2752 9.79998 71.9252 9.36248 71.2252 9.36248C70.5252 9.36248 70.1752 9.88748 70.1752 10.675C70.1752 11.55 70.5252 12.075 71.2252 12.075C71.9252 12.075 72.2752 11.55 72.2752 10.675Z" fill="white"/>
<path d="M74.1128 8.74998H74.9003V9.36248H74.9878C75.1628 8.92498 75.6003 8.66248 76.1253 8.66248C77.0003 8.66248 77.5253 9.18748 77.5253 10.15V12.6875H76.7378V10.325C76.7378 9.71248 76.4753 9.36248 75.8628 9.36248C75.2503 9.36248 74.9003 9.71248 74.9003 10.325V12.6H74.1128V8.74998Z" fill="white"/>
<path d="M81.8127 7.78748V8.74998H82.6877V9.36248H81.8127V11.375C81.8127 11.8125 81.9877 11.9875 82.3377 11.9875C82.4252 11.9875 82.5127 11.9875 82.6002 11.9875V12.6C82.5127 12.6 82.3377 12.6 82.1627 12.6C81.2877 12.6 80.9377 12.3375 80.9377 11.55V9.36248H80.3252V8.74998H80.9377V7.78748H81.8127Z" fill="white"/>
<path d="M83.7378 7.17493H84.5253V9.36243H84.6128C84.7878 8.92493 85.2253 8.66243 85.8378 8.66243C86.7128 8.66243 87.2378 9.18743 87.2378 10.1499V12.6874H86.4503V10.3249C86.4503 9.71243 86.1878 9.36243 85.5753 9.36243C84.9628 9.36243 84.6128 9.79993 84.6128 10.3249V12.5999H83.8253V7.17493H83.7378Z" fill="white"/>
<path d="M91.7003 11.6375C91.5253 12.3375 90.9128 12.775 89.9503 12.775C88.8128 12.775 88.1128 11.9875 88.1128 10.7625C88.1128 9.53748 88.8128 8.66248 89.9503 8.66248C91.0878 8.66248 91.7003 9.44998 91.7003 10.675V10.9375H88.9003C88.9003 11.6375 89.3378 12.075 89.9503 12.075C90.3878 12.075 90.7378 11.9 90.9128 11.6375H91.7003ZM88.9878 10.325H91.0003C91.0003 9.71248 90.5628 9.27498 90.0378 9.27498C89.4253 9.36248 88.9878 9.71248 88.9878 10.325Z" fill="white"/>
</g>
<defs>
<clipPath id="clip0">
<rect width="105" height="35" fill="white"/>
</clipPath>
</defs>
</svg>
