<svg width="112" height="35" viewBox="0 0 112 35" fill="none" xmlns="http://www.w3.org/2000/svg">
<path d="M111.003 29.2879C111.003 32.1052 108.695 33.9987 105.254 33.9987H7.00226C3.69228 33.9987 0.996866 31.6372 0.996866 28.7303V6.26974C0.996866 3.3652 3.69228 1.00131 7.00226 1.00131H105.254C108.467 1.00131 111.003 3.31428 111.003 6.26974V29.2879ZM105.254 0H7.00226C3.14062 0 0 2.81241 0 6.26974V28.7303C0 32.1876 3.1382 35 7.00226 35H105.254C109.288 35 112 32.7016 112 29.2879V6.26732C112.014 2.75422 109.036 0 105.254 0Z" fill="white"/>
<path d="M97.3589 18.7025C98.0049 18.7025 98.6557 18.7025 99.3042 18.7025C100.018 20.4142 100.724 22.1283 101.424 23.8448C102.077 22.1307 102.742 20.419 103.396 18.7049C104.066 18.7049 104.734 18.7049 105.406 18.7049C103.836 22.3344 102.261 25.9614 100.679 29.5909C100.049 29.5909 99.4179 29.5909 98.7864 29.5909C99.3647 28.3617 99.9309 27.1276 100.514 25.8984C99.4663 23.5006 98.4065 21.1076 97.3589 18.7098V18.7025ZM68.7643 22.3998C69.8869 21.9416 70.9975 21.4688 72.1202 21.0106C71.7428 20.3875 70.9903 20.099 70.2934 20.3148C69.3764 20.5887 68.7522 21.4397 68.7643 22.3998ZM68.2876 19.6893C69.3353 18.717 70.8669 18.4819 72.1589 19.0928C73.1389 19.5947 73.7655 20.5815 74.0825 21.6119C72.4081 22.3077 70.7362 23.0035 69.0595 23.6969C69.3183 24.1964 69.7708 24.5673 70.3079 24.7249C71.2395 24.9625 72.217 24.5673 72.7179 23.7454C73.1582 24.0364 73.5986 24.3273 74.0341 24.6279C73.5841 25.2947 72.938 25.8063 72.1855 26.0899C70.8572 26.5845 69.3619 26.2887 68.3215 25.3238C66.7729 23.8861 66.7947 21.1561 68.29 19.6868L68.2876 19.6893ZM59.5045 20.293C58.3455 20.4602 57.5858 21.687 57.7334 22.8072C57.806 23.9952 58.9795 25.0304 60.1723 24.7589C61.3216 24.5285 61.9531 23.2314 61.7475 22.138C61.6338 21.0615 60.6199 20.0917 59.5045 20.293ZM57.61 19.4226C58.769 18.5352 60.5885 18.4916 61.6459 19.5729C61.6459 19.3741 61.6459 19.1753 61.6459 18.9765H63.2525V25.9032C63.2525 27.0355 62.8871 28.2574 61.9652 28.9751C60.5667 30.0321 58.3722 29.9376 57.143 28.6672C56.797 28.3108 56.5139 27.8986 56.3058 27.4476C56.7922 27.2343 57.2858 27.0306 57.7794 26.8294C57.9632 27.21 58.2294 27.5422 58.5609 27.804C59.3981 28.4393 60.7869 28.255 61.3386 27.3288C61.6894 26.7761 61.6604 26.0972 61.6628 25.4717C61.0458 26.1069 60.1651 26.4124 59.2868 26.296C57.8737 26.1117 56.6881 25.1347 56.2333 23.7818C55.6961 22.1792 56.2623 20.4118 57.6293 19.4201L57.61 19.4226ZM50.8207 20.3511C49.6496 20.6785 49.0374 22.0604 49.3834 23.1878C49.652 24.2619 50.8182 25.0668 51.9022 24.7201C53.0709 24.451 53.7338 23.0932 53.4338 21.9659C53.2233 20.8166 51.9554 19.9753 50.8231 20.356L50.8207 20.3511ZM50.5739 18.8213C51.8562 18.5473 53.1918 18.9352 54.1282 19.8541C55.5558 21.2773 55.5388 23.8788 54.0581 25.2438C52.5603 26.7591 49.802 26.6257 48.4616 24.9747C47.2494 23.5418 47.3244 21.1803 48.6696 19.8565C49.185 19.328 49.848 18.9716 50.5714 18.8286L50.5739 18.8213ZM42.5723 20.3633C41.6166 20.7463 41.031 21.7186 41.1399 22.7441C41.2488 23.7697 42.0231 24.5989 43.0369 24.7758C44.3386 24.9165 45.471 23.6266 45.3064 22.361C45.3064 21.0203 43.8692 19.8759 42.5747 20.3705L42.5723 20.3633ZM42.4247 18.8092C43.816 18.5182 45.2556 19.0152 46.1751 20.1014C47.4478 21.6289 47.2469 24.1649 45.6839 25.4208C44.3338 26.5748 42.3691 26.6427 40.9439 25.5856C39.5188 24.5285 39.0107 22.6253 39.7172 20.9961C40.2011 19.859 41.2198 19.0395 42.4296 18.8092H42.4247ZM91.9874 22.9114C91.4333 23.2872 91.4309 24.2231 92.0721 24.5213C93.2891 25.1977 94.8497 24.2134 95.0191 22.9114C94.0876 22.4314 92.8754 22.3223 91.9729 22.9357L91.9874 22.9114ZM89.9791 20.0505C90.901 18.1715 93.4851 17.7885 95.2079 18.7243C96.1563 19.2456 96.754 20.2348 96.7733 21.3209C96.7927 22.9138 96.7733 24.5092 96.7733 26.0996H95.0167C95.0167 25.7869 95.0167 25.4765 95.0167 25.1686C93.8747 26.9724 90.7655 26.6015 89.9598 24.6716C89.4904 23.5345 89.9332 22.2253 90.9954 21.6095C92.239 20.8991 93.7488 20.8385 95.0457 21.4494C94.9925 19.728 92.3213 19.3013 91.5639 20.7488C91.0292 20.5112 90.4776 20.3172 89.9574 20.0505H89.9791ZM86.7659 26.0996C86.7659 22.4459 86.7659 18.7922 86.7659 15.1409H88.5516V26.0996H86.7659ZM79.7346 16.7944V20.2833C80.5113 20.2833 81.2904 20.3099 82.0671 20.2687C82.9164 20.1814 83.5866 19.5074 83.6737 18.6588C83.7027 17.7206 83.0011 16.9181 82.0671 16.8259C81.2856 16.792 80.4992 16.8259 79.7177 16.8259L79.7346 16.7944ZM78.0191 15.1118C79.287 15.1118 80.55 15.1118 81.8203 15.1118C82.7301 15.1094 83.6108 15.427 84.3101 16.0113C85.1424 16.7362 85.5634 17.8272 85.4352 18.9231C85.3069 20.0214 84.6464 20.9839 83.6689 21.4955C82.4663 22.1671 81.0485 21.9077 79.737 21.9586V26.0681H78.0191V15.107V15.1118ZM64.5566 15.1118H66.2406V26.1408H64.5566V15.1118ZM27.8927 18.0236C28.7686 16.0889 30.6051 14.77 32.7149 14.5566C34.3941 14.3796 36.0636 14.9615 37.2686 16.1471C36.8863 16.5301 36.4943 16.9059 36.1386 17.3108C35.3015 16.5156 34.1715 16.101 33.0174 16.1689C31.8342 16.244 30.743 16.8332 30.0268 17.7788C29.3227 18.7073 29.0227 19.8832 29.1945 21.0373C29.3953 22.458 30.3026 23.6775 31.6043 24.274C33.1408 24.9747 35.1515 24.6473 36.2717 23.343C36.6855 22.812 36.9468 22.1792 37.0291 21.5125C35.7685 21.4761 34.5054 21.5125 33.2448 21.4955V19.8444C35.0281 19.8444 36.8137 19.8444 38.6018 19.8444C38.8534 21.2555 38.5921 22.7126 37.859 23.9442C37.017 25.2123 35.6571 26.0439 34.1473 26.2136C32.9206 26.3881 31.6721 26.1748 30.5712 25.605C27.808 24.1988 26.6297 20.87 27.8927 18.0333" fill="white"/>
<path d="M22.1058 21.0982L18.549 23.0475L16.4077 20.8993L16.6037 20.703L18.6216 18.6785L22.1034 20.589C22.2752 20.6836 22.3526 20.7854 22.3526 20.8581C22.3526 20.9309 22.2752 21.0036 22.1034 21.0933L22.1058 21.0982ZM9.0715 28.2359L15.8367 21.4594L16.006 21.6291L17.8231 23.4451L9.0715 28.2359ZM7.19633 28.9778C7.06567 28.9099 6.98099 28.779 6.97131 28.6311V13.0658C6.97615 12.9422 7.03665 12.8282 7.13101 12.7506L15.2656 20.9042L7.19633 28.9778ZM16.4682 17.4978L17.8788 18.2712L15.8294 20.3272L8.83923 13.3228L16.4682 17.4978ZM22.4808 19.8811L18.7305 17.8251L8.18837 12.0524C7.92947 11.9021 7.63428 11.8245 7.33667 11.8293C7.26166 11.8293 7.18908 11.8366 7.11649 11.8536C7.09714 11.8536 7.09713 11.8802 7.08262 11.8851C6.55273 12.0281 6.18253 12.5033 6.17285 13.0537V28.6189C6.18253 29.2226 6.62774 29.7294 7.22296 29.8166C7.24473 29.8263 7.2665 29.8336 7.2907 29.8409H7.33909C7.65364 29.8433 7.96335 29.7585 8.23434 29.596L18.6797 23.8791L22.4953 21.7891C22.897 21.6412 23.1631 21.2582 23.1631 20.829C23.1631 20.3999 22.897 20.0168 22.4953 19.8689L22.4808 19.8811Z" fill="white"/>
<path d="M31.068 5.00088C30.2898 4.98229 29.5338 5.25785 28.9535 5.77155V5.77458C28.0593 6.53273 27.8205 7.82461 28.1267 8.91332C28.3149 9.51662 28.6952 10.0435 29.2107 10.4151C29.7261 10.7868 30.3492 10.9834 30.9867 10.9755C31.5246 11.0034 32.0589 10.8747 32.5236 10.6052C32.9884 10.3358 33.3632 9.93734 33.6018 9.4592C33.8189 8.9153 33.8936 8.32593 33.8192 7.74577H30.9867V8.50089H33.0874C32.968 9.9535 31.1215 10.6783 29.9272 9.95351C28.6166 9.27118 28.3931 7.2636 29.5169 6.31439C29.9413 5.92697 30.502 5.71956 31.079 5.73656C31.6559 5.75357 32.2032 5.99365 32.6036 6.40539L33.1425 5.87165C32.5879 5.33084 31.8461 5.01947 31.068 5.00088Z" fill="white"/>
<path d="M38.0787 5.13167H34.6736V5.14078V10.8572H38.0787V10.1051H35.4361V8.35836H37.8001V7.64267H35.4361V5.8595H38.0787V5.13167Z" fill="white"/>
<path d="M42.6353 5.14078H38.6544L38.6667 5.14685V5.8595H40.2712V10.8572H41.0306V5.8595H42.6353V5.14078Z" fill="white"/>
<path d="M45.921 5.14685H45.1187V10.8603H45.921V5.14685Z" fill="white"/>
<path d="M50.5448 5.13167H46.564L46.5793 5.14381V5.8595H48.1808V10.8572H48.9433V5.8595H50.5448V5.13167Z" fill="white"/>
<path d="M57.7501 5.79279C56.957 4.99825 55.6893 4.83449 54.6512 5.18627V5.19235C52.8078 5.82313 52.1586 8.34017 53.3406 9.83524C54.296 11.1999 56.4793 11.394 57.7042 10.2659C59.0117 9.16201 59.0271 6.92395 57.7501 5.79279Z" fill="white"/>
<path d="M60.4816 5.16199H59.5629L59.5507 5.14988V10.8663H60.3132C60.2825 9.32577 60.3805 7.77611 60.255 6.23858C61.2685 7.76094 62.2025 9.33184 63.1977 10.8694H64V5.15596H63.2375V9.52591C62.3189 8.07329 61.4002 6.61461 60.4816 5.16199Z" fill="white"/>
<circle cx="55.68" cy="8.00004" r="2.23271" fill="#1D1D1D"/>
</svg>
